<svg width="512" height="512" viewBox="0 0 512 512" fill="none" xmlns="http://www.w3.org/2000/svg" role="img" aria-labelledby="title desc">
  <title id="title">Transcribe logo</title>
  <desc id="desc">A rounded square speech bubble with an audio waveform and transcript lines.</desc>
  <defs>
    <linearGradient id="logo-bg" x1="72" y1="72" x2="440" y2="440" gradientUnits="userSpaceOnUse">
      <stop offset="0" stop-color="#0f172a"/>
      <stop offset="0.55" stop-color="#1e1b4b"/>
      <stop offset="1" stop-color="#0f766e"/>
    </linearGradient>
    <linearGradient id="logo-accent" x1="160" y1="196" x2="360" y2="320" gradientUnits="userSpaceOnUse">
      <stop offset="0" stop-color="#38bdf8"/>
      <stop offset="0.45" stop-color="#8b5cf6"/>
      <stop offset="1" stop-color="#34d399"/>
    </linearGradient>
    <filter id="logo-shadow" x="52" y="52" width="408" height="408" filterUnits="userSpaceOnUse">
      <feDropShadow dx="0" dy="10" stdDeviation="18" flood-color="#020617" flood-opacity="0.38"/>
    </filter>
  </defs>
  <rect x="48" y="48" width="416" height="416" rx="124" fill="url(#logo-bg)"/>
  <circle cx="374" cy="122" r="108" fill="#38bdf8" fill-opacity="0.14"/>
  <g filter="url(#logo-shadow)">
    <path d="M160 146h192c31.5 0 57 25.5 57 57v66c0 31.5-25.5 57-57 57h-71l-56 54v-54h-65c-31.5 0-57-25.5-57-57v-66c0-31.5 25.5-57 57-57Z" fill="rgba(255,255,255,0.07)" stroke="rgba(255,255,255,0.16)" stroke-width="2"/>
    <path d="M188 220c14-18 29-18 43 0s29 18 43 0 29-18 43 0 29 18 43 0 29-18 43 0" stroke="url(#logo-accent)" stroke-width="18" stroke-linecap="round"/>
    <rect x="188" y="260" width="138" height="12" rx="6" fill="#f8fafc" fill-opacity="0.94"/>
    <rect x="188" y="286" width="172" height="12" rx="6" fill="#f8fafc" fill-opacity="0.64"/>
    <rect x="188" y="312" width="118" height="12" rx="6" fill="#f8fafc" fill-opacity="0.44"/>
  </g>
</svg>
